<?xml version="1.0" encoding="iso-8859-1"?>
<!-- Uploaded to: SVG Repo, www.svgrepo.com, Generator: SVG Repo Mixer Tools -->
<svg fill="#000000" height="800px" width="800px" version="1.1" id="Layer_1" xmlns="http://www.w3.org/2000/svg" xmlns:xlink="http://www.w3.org/1999/xlink" 
	 viewBox="0 0 512.001 512.001" xml:space="preserve">
<g>
	<g>
		<path d="M336.017,172.025c-6.5-6.502-17.042-6.502-23.544,0s-6.502,17.042,0,23.544c16.142,16.142,25.032,37.604,25.032,60.431
			s-8.89,44.289-25.032,60.431c-6.502,6.5-6.502,17.042,0,23.544c6.5,6.502,17.042,6.502,23.544,0
			c22.432-22.43,34.784-52.254,34.784-83.975C370.801,224.279,358.448,194.456,336.017,172.025z"/>
	</g>
</g>
<g>
	<g>
		<path d="M386.221,121.821c-6.501-6.502-17.042-6.502-23.544,0c-6.502,6.502-6.502,17.042,0,23.544
			c61.004,61.004,61.004,160.266,0,221.271c-6.502,6.502-6.502,17.042,0,23.544c6.5,6.502,17.042,6.503,23.544,0
			C460.207,316.193,460.207,195.808,386.221,121.821z"/>
	</g>
</g>
<g>
	<g>
		<path d="M435.861,72.181c-6.499-6.502-17.041-6.502-23.544,0c-6.502,6.5-6.502,17.042,0,23.544
			c88.376,88.376,88.376,232.175,0,320.551c-6.502,6.502-6.502,17.042,0,23.544c6.5,6.502,17.042,6.503,23.544,0
			c49.1-49.1,76.14-114.381,76.14-183.819S484.96,121.281,435.861,72.181z"/>
	</g>
</g>
<g>
	<g>
		<path d="M227.371,112.244l-95.321,50.145c0.052,0.536,0.082,1.08,0.082,1.63v185.634l95.239,50.102
			c11.033,5.805,24.398-2.172,24.398-14.734V126.978C251.771,114.469,238.442,106.418,227.371,112.244z"/>
	</g>
</g>
<g>
	<g>
		<path d="M85.227,170.56H16.648C7.454,170.56,0,178.014,0,187.208v137.583c0,9.194,7.454,16.648,16.648,16.648h68.579
			c9.194,0,16.648-7.454,16.648-16.648V187.208C101.875,178.014,94.421,170.56,85.227,170.56z"/>
	</g>
</g>
</svg>